<svg id="Layer_1" data-name="Layer 1" xmlns="http://www.w3.org/2000/svg" viewBox="0 0 130.67 192.53"><path d="M129.94,135.94a34.41,34.41,0,1,1,34.41-34.41A34.45,34.45,0,0,1,129.94,135.94Zm0-61.86a27.45,27.45,0,1,0,27.45,27.45A27.48,27.48,0,0,0,129.94,74.08Z" transform="translate(-33.67 -5.27)"/><path d="M68.08,74.08A34.41,34.41,0,0,1,43.75,15.34,34.17,34.17,0,0,1,68.08,5.27H99a3.47,3.47,0,0,1,3.48,3.47V70.6A3.48,3.48,0,0,1,99,74.08ZM99,70.6h0ZM68.08,12.22a27.46,27.46,0,0,0,0,54.91H95.54V12.22Z" transform="translate(-33.67 -5.27)"/><path d="M99,135.94H68.08a34.41,34.41,0,0,1,0-68.82H99a3.48,3.48,0,0,1,3.48,3.48v61.86A3.48,3.48,0,0,1,99,135.94ZM68.08,74.08a27.45,27.45,0,0,0,0,54.9H95.54V74.08Z" transform="translate(-33.67 -5.27)"/><path d="M129.94,74.08H99a3.47,3.47,0,0,1-3.47-3.48V8.74A3.47,3.47,0,0,1,99,5.27h30.93A34.4,34.4,0,0,1,154.27,64,34.17,34.17,0,0,1,129.94,74.08Zm-27.45-7h27.45a27.46,27.46,0,1,0,0-54.91H102.49Z" transform="translate(-33.67 -5.27)"/><path d="M68.1,197.8a34.41,34.41,0,0,1,0-68.82H99a3.48,3.48,0,0,1,3.48,3.48v30.93A34.41,34.41,0,0,1,68.1,197.8Zm0-61.86a27.45,27.45,0,1,0,27.46,27.45V135.94Z" transform="translate(-33.67 -5.27)"/></svg>