<svg id="Layer_1" data-name="Layer 1" xmlns="http://www.w3.org/2000/svg" viewBox="0 0 192.32 192.34"><path d="M100,104.72a3.26,3.26,0,0,1-3.26-3.26V8.55a3.26,3.26,0,1,1,6.52,0v92.91A3.26,3.26,0,0,1,100,104.72Z" transform="translate(-3.84 -5.29)"/><path d="M19.55,151.17a3.26,3.26,0,0,1-1.64-6.08L178.84,52.18a3.26,3.26,0,0,1,3.26,5.65L21.17,150.73A3.19,3.19,0,0,1,19.55,151.17Z" transform="translate(-3.84 -5.29)"/><path d="M8.64,121.7A3.26,3.26,0,0,1,5.44,119,96.33,96.33,0,0,1,67.94,10.76a3.26,3.26,0,0,1,4.35,3.07V83.58a3.25,3.25,0,0,1-1.63,2.82L10.27,121.27A3.23,3.23,0,0,1,8.64,121.7ZM65.77,18.58a89.79,89.79,0,0,0-54.65,94.67L65.77,81.69Z" transform="translate(-3.84 -5.29)"/><path d="M100,197.63a96.2,96.2,0,0,1-82.92-47.45,3.26,3.26,0,1,1,5.62-3.3,89.79,89.79,0,0,0,33,32.52,90.82,90.82,0,0,0,44.81,11.71A89.65,89.65,0,0,0,100,11.81a3.26,3.26,0,0,1,0-6.52h0a96.17,96.17,0,0,1,.53,192.34Z" transform="translate(-3.84 -5.29)"/></svg>