<svg id="Layer_1" data-name="Layer 1" xmlns="http://www.w3.org/2000/svg" viewBox="0 0 30 18.72"><path d="M20.49,17.7v.45a3.68,3.68,0,0,1-.29,1.39,2.3,2.3,0,0,1-.91,1,4.77,4.77,0,0,1-.55.29.23.23,0,0,0-.16.24v.21a2.32,2.32,0,0,1-.87,1.89,4.55,4.55,0,0,1-1.83.9,8.27,8.27,0,0,1-1.41.21,18.18,18.18,0,0,1-2.66,0A21.19,21.19,0,0,1,8.72,24,9,9,0,0,1,6.06,23a7,7,0,0,1-1.91-1.53L3.7,21l-.17.11a1.69,1.69,0,0,1-2.1-.19A3.46,3.46,0,0,1,.6,19.61a8.77,8.77,0,0,1-.45-1.67A10.24,10.24,0,0,1,0,16.19C0,15.8,0,15.4,0,15a12.15,12.15,0,0,1,.28-2.55,6.14,6.14,0,0,1,.5-1.4,2.13,2.13,0,0,1,.64-.79A1.59,1.59,0,0,1,3.08,10c.11.05.12.05.19,0A12.92,12.92,0,0,1,5.13,8.07a11,11,0,0,1,2.7-1.66,10.47,10.47,0,0,1,2.1-.67,5.16,5.16,0,0,1,2.7.17,3.34,3.34,0,0,1,1.92,1.6c.08.15.15.3.23.44l.12.21a.51.51,0,0,0,.41.24,2.83,2.83,0,0,0,.41,0,7.41,7.41,0,0,1,2.55.5,2.85,2.85,0,0,1,1.52,1.32,3,3,0,0,1,.31,1.18,3.57,3.57,0,0,1-.07.87c0,.12,0,.17.13.19h4.29a13.12,13.12,0,0,1,2.79.32,5.53,5.53,0,0,1,1.19.39,2.74,2.74,0,0,1,1.29,1.18,2.1,2.1,0,0,1,.13,1.83,2.19,2.19,0,0,1-1.58,1.44,5.08,5.08,0,0,1-1.34.17c-.59,0-1.17,0-1.76-.06l-2.61-.07c-.57,0-1.15,0-1.72,0ZM17.78,21H17.6c-.27,0-.54,0-.8,0a3.54,3.54,0,0,1-.92-.08.68.68,0,0,1-.21-.1c-.07-.05-.06-.13,0-.21a.16.16,0,0,1,.14-.12h.11a9.87,9.87,0,0,0,1.54-.08,4.27,4.27,0,0,0,.95-.24,2,2,0,0,0,1-.72,2,2,0,0,0,.28-1.74c-.06-.2-.08-.21-.29-.22H16.88c-.25,0-.51,0-.77,0a.22.22,0,0,1-.2-.3.23.23,0,0,1,.17-.16,2,2,0,0,1,.6-.08c1,0,2-.06,3-.07s1.74,0,2.62,0,1.64,0,2.46.07l1.69.08a5.08,5.08,0,0,0,1.69-.18,1.41,1.41,0,0,0,1-1.64,1.6,1.6,0,0,0-.51-.83,2.76,2.76,0,0,0-1-.52A7.41,7.41,0,0,0,26,13.46a14.35,14.35,0,0,0-1.61-.11H18.74c-.49,0-1,0-1.49,0l-1.19.07h-.2a.25.25,0,0,1-.21-.21.22.22,0,0,1,.14-.24,1.28,1.28,0,0,1,.31-.11,11.82,11.82,0,0,1,1.46-.13l1.24-.08a.41.41,0,0,0,.39-.28,1.85,1.85,0,0,0,.13-.93,2.13,2.13,0,0,0-.86-1.5,3,3,0,0,0-1.23-.52,10.51,10.51,0,0,0-1.48-.19c-.52,0-1.05,0-1.57,0a21.52,21.52,0,0,0-2.54.16A26.92,26.92,0,0,0,9,9.81l-.59.11a.15.15,0,0,1-.17-.09.14.14,0,0,1,.06-.18,2.58,2.58,0,0,1,.42-.25,8.48,8.48,0,0,1,1.72-.5,17.31,17.31,0,0,1,1.76-.24L14,8.53l.19,0c-.05-.11-.08-.2-.12-.29A2.86,2.86,0,0,0,12,6.59a4.63,4.63,0,0,0-1.74,0,8.83,8.83,0,0,0-2.68.9,13.8,13.8,0,0,0-2,1.34A6.58,6.58,0,0,0,3.18,12.1a.33.33,0,0,1-.07.13.12.12,0,0,1-.23,0,.5.5,0,0,1,0-.21c0-.25.08-.51.13-.76a.57.57,0,0,0,0-.13.44.44,0,0,0-.42-.39.88.88,0,0,0-.59.14,1.29,1.29,0,0,0-.37.4,3.08,3.08,0,0,0-.41,1,13,13,0,0,0-.39,2.85c0,.45,0,.89,0,1.34A10.81,10.81,0,0,0,1,18.2a5.08,5.08,0,0,0,.44,1.35,3.06,3.06,0,0,0,.48.71,1,1,0,0,0,.81.3.55.55,0,0,0,.49-.75l0-.09c0-.17-.1-.34-.13-.51a.76.76,0,0,1,0-.26.11.11,0,0,1,.1-.12.15.15,0,0,1,.17.07l.1.18a8.44,8.44,0,0,0,.78,1.25,7.1,7.1,0,0,0,3.52,2.5,10.48,10.48,0,0,0,1.66.37,26.31,26.31,0,0,0,2.66.26c.49,0,1,0,1.46,0a11.7,11.7,0,0,0,1.87-.16,4,4,0,0,0,1.43-.52,2.25,2.25,0,0,0,.7-.64A1.69,1.69,0,0,0,17.78,21Z" transform="translate(0 -5.64)"/></svg>